<svg width="19" height="23" viewBox="0 0 19 23" fill="none" xmlns="http://www.w3.org/2000/svg">
<g id="basket">
<path id="Rectangle-10" fill-rule="evenodd" clip-rule="evenodd" d="M18.9474 6.85889H0V18.6484C0 20.8575 1.79086 22.6484 4 22.6484H14.9474C17.1565 22.6484 18.9474 20.8575 18.9474 18.6484V6.85889ZM4 21.1484C2.61929 21.1484 1.5 20.0291 1.5 18.6484V8.35889H17.4474V18.6484C17.4474 20.0291 16.3281 21.1484 14.9474 21.1484H4Z" fill="#262626"/>
<path id="Rectangle-3" d="M6.01318 12.0601V5.86812C6.01318 3.95692 7.56251 2.40759 9.47371 2.40759C11.3849 2.40759 12.9342 3.95692 12.9342 5.86812V12.0601C12.9342 12.4743 13.27 12.8101 13.6842 12.8101C14.0984 12.8101 14.4342 12.4743 14.4342 12.0601V5.86812C14.4342 3.1285 12.2133 0.907593 9.47371 0.907593C6.73409 0.907593 4.51318 3.1285 4.51318 5.86812V12.0601C4.51318 12.4743 4.84897 12.8101 5.26318 12.8101C5.6774 12.8101 6.01318 12.4743 6.01318 12.0601Z" fill="#262626"/>
</g>
</svg>
