<svg width="24" height="24" viewBox="0 0 24 24" fill="none" xmlns="http://www.w3.org/2000/svg">
<path fill-rule="evenodd" clip-rule="evenodd" d="M16.0325 3H7.96724C5.22831 3 3 5.22841 3 7.96735V16.0327C3 18.7717 5.22831 21 7.96724 21H16.0325C18.7717 21 21 18.7716 21 16.0327V7.96735C21.0001 5.22841 18.7717 3 16.0325 3ZM20.0001 16.3579C20.0001 18.3662 18.3662 20 16.3579 20H7.642C5.6338 20.0001 4 18.3662 4 16.3579V7.64212C4 5.63392 5.6338 4 7.642 4H16.3578C18.3661 4 20 5.63392 20 7.64212V16.3579H20.0001ZM7.36186 12.0002C7.36186 9.4427 9.44249 7.36207 12 7.36207C14.5575 7.36207 16.6381 9.4427 16.6381 12.0002C16.6381 14.5576 14.5575 16.6381 12 16.6381C9.44249 16.6381 7.36186 14.5576 7.36186 12.0002ZM16.4349 5.83418C16.5833 5.68509 16.7898 5.6 17 5.6C17.2109 5.6 17.4175 5.68509 17.5658 5.83418C17.7149 5.98255 17.8 6.18909 17.8 6.4C17.8 6.61018 17.7149 6.81673 17.5658 6.96582C17.4167 7.11418 17.2109 7.2 17 7.2C16.7898 7.2 16.5833 7.11418 16.4349 6.96582C16.2858 6.81673 16.2 6.61025 16.2 6.4C16.2 6.18909 16.2857 5.98255 16.4349 5.83418Z" fill="white"/>
<mask id="mask0" mask-type="alpha" maskUnits="userSpaceOnUse" x="7" y="5" width="11" height="12">
<path fill-rule="evenodd" clip-rule="evenodd" d="M16.4349 5.83419C16.5833 5.6851 16.7898 5.60001 17 5.60001C17.2109 5.60001 17.4175 5.6851 17.5658 5.83419C17.7149 5.98255 17.8 6.1891 17.8 6.40001C17.8 6.61019 17.7149 6.81673 17.5658 6.96582C17.4167 7.11419 17.2109 7.20001 17 7.20001C16.7898 7.20001 16.5833 7.11419 16.4349 6.96582C16.2858 6.81673 16.2 6.61026 16.2 6.40001C16.2 6.1891 16.2857 5.98255 16.4349 5.83419ZM12 7.36207C9.44245 7.36207 7.36182 9.44271 7.36182 12.0002C7.36182 14.5576 9.44245 16.6382 12 16.6382C14.5575 16.6382 16.6381 14.5576 16.6381 12.0002C16.6381 9.44271 14.5575 7.36207 12 7.36207ZM12 15.8397C9.88274 15.8397 8.16003 14.1173 8.16003 12C8.16003 9.88258 9.88261 8.16001 12 8.16001C14.1175 8.16001 15.84 9.88258 15.84 12C15.84 14.1173 14.1173 15.8397 12 15.8397Z" fill="white"/>
</mask>
<g mask="url(#mask0)">
</g>
</svg>
